<?xml version="1.0"?>
<svg xmlns="http://www.w3.org/2000/svg" xmlns:xlink="http://www.w3.org/1999/xlink" xmlns:svgjs="http://svgjs.com/svgjs" version="1.1" width="512" height="512" x="0" y="0" viewBox="0 0 511.998 511.998" style="enable-background:new 0 0 512 512" xml:space="preserve" class=""><g><path xmlns="http://www.w3.org/2000/svg" d="m489.962 425.93c-.348-26.443-15.657-49.328-37.838-60.576 4.357-7.129 6.872-15.501 6.872-24.45 0-25.92-21.079-47.009-46.996-47.026v-30.719h25.003v-30h-103.027c-.186-14.081-4.606-27.154-12.056-38h138.206v-195.159h-408.285v195.159h138.237c-7.45 10.846-11.87 23.919-12.056 38h-103.026v30h25.002v30.719c-.011 0-.021-.001-.032-.001-25.93 0-47.026 21.096-47.026 47.026 0 8.954 2.518 17.331 6.879 24.462-22.168 11.252-37.466 34.13-37.814 60.564h-22.005v86.068h511.998v-86.067zm-87.06-38h18.166c21.151 0 38.403 16.964 38.894 38h-95.954c.491-21.035 17.743-38 38.894-38zm26.094-47.026c0 9.388-7.638 17.026-17.026 17.026s-17.026-7.638-17.026-17.026 7.638-17.026 17.026-17.026 17.026 7.638 17.026 17.026zm-190.039-192.772c0-9.388 7.638-17.026 17.026-17.026 9.389 0 17.026 7.638 17.026 17.026s-7.638 17.026-17.026 17.026c-9.388.001-17.026-7.637-17.026-17.026zm-157.116-118.132h348.285v135.159h-130.32c2.06-5.284 3.203-11.022 3.203-17.026 0-25.93-21.096-47.026-47.026-47.026s-47.026 21.096-47.026 47.026c0 6.004 1.143 11.743 3.203 17.026h-130.319zm165.075 165.159h18.166c21.152 0 38.418 16.963 38.906 38h-95.978c.489-21.037 17.754-38 38.906-38zm135.084 68v41.535c-10.412 8.633-17.057 21.66-17.057 36.21 0 8.954 2.518 17.331 6.879 24.462-22.168 11.252-37.466 34.13-37.814 60.564h-.048c-.348-26.443-15.657-49.328-37.838-60.576 4.357-7.129 6.872-15.501 6.872-24.45 0-25.93-21.096-47.026-47.026-47.026s-47.026 21.096-47.026 47.026c0 8.954 2.518 17.331 6.879 24.462-22.168 11.252-37.466 34.13-37.814 60.564h-.048c-.348-26.443-15.657-49.328-37.838-60.576 4.357-7.129 6.872-15.501 6.872-24.45 0-14.521-6.618-27.523-16.994-36.156v-41.589zm-126.032 94.771c-9.388 0-17.026-7.638-17.026-17.026s7.638-17.026 17.026-17.026c9.389 0 17.026 7.638 17.026 17.026s-7.638 17.026-17.026 17.026zm-9.068 30h18.166c21.151 0 38.403 16.964 38.894 38h-95.953c.49-21.035 17.742-38 38.893-38zm-146.934-64.053c9.388 0 17.026 7.638 17.026 17.026s-7.638 17.026-17.026 17.026-17.026-7.638-17.026-17.026 7.638-17.026 17.026-17.026zm-9.068 64.053h18.166c21.151 0 38.403 16.964 38.894 38h-95.953c.49-21.035 17.742-38 38.893-38zm391.1 94.068h-451.998v-26.068h451.998z" fill="#ffffff" data-original="#000000" style="" class=""/></g></svg>
