<?xml version="1.0"?>
<svg xmlns="http://www.w3.org/2000/svg" xmlns:xlink="http://www.w3.org/1999/xlink" xmlns:svgjs="http://svgjs.com/svgjs" version="1.1" width="512" height="512" x="0" y="0" viewBox="0 0 512 512" style="enable-background:new 0 0 512 512" xml:space="preserve" class=""><g>
<g xmlns="http://www.w3.org/2000/svg">
	<g>
		<g>
			<path d="M473.534,123.021C478.025,125.628,473.526,123.016,473.534,123.021L473.534,123.021z" fill="#ffffff" data-original="#000000" style=""/>
			<path d="M473.534,123.021c-0.008-0.005-0.016-0.008-0.024-0.013c-0.006-0.003-0.011-0.007-0.017-0.01L263.488,1.995     c-4.439-2.558-10.097-2.728-14.801-0.094c-0.058,0.032-0.118,0.06-0.176,0.094L38.505,122.998     c-0.006,0.003-0.011,0.007-0.017,0.01c-0.008,0.005-0.016,0.008-0.024,0.013c-4.5,2.613-7.471,7.549-7.471,12.974v240.006     c0,5.351,2.967,10.441,7.63,13.065l209.862,120.92c0.003,0.001,0.005,0.003,0.008,0.005c0.003,0.001,0.006,0.003,0.009,0.005     l0.009,0.005c4.516,2.588,10.089,2.697,14.742,0.125c0.078-0.043,0.158-0.081,0.235-0.125l0.009-0.005     c0.003-0.002,0.006-0.003,0.009-0.005c0.003-0.001,0.005-0.003,0.008-0.005l209.865-120.922c0.037-0.021,0.074-0.042,0.111-0.063     l0.004-0.002c0.005-0.003,0.01-0.006,0.015-0.009c4.606-2.656,7.44-7.575,7.491-12.822c0.001-0.056,0.006-0.11,0.006-0.166     V135.996C481.005,130.549,478.025,125.628,473.534,123.021z M271,40.947l164.865,94.993l-70.869,40.497     c-21.794-29.777-55.474-50.326-93.996-54.605V40.947z M361.002,255.997c0,18.932-5.038,36.71-13.842,52.064     c-0.004,0.007-0.009,0.013-0.013,0.02c-0.006,0.01-0.01,0.021-0.015,0.03c-15.756,27.446-43.553,47.131-76.132,51.812v-95.221     l82.677-47.244C358.403,229.396,361.002,242.398,361.002,255.997z M240.999,40.947v80.885     c-38.522,4.278-72.202,24.828-93.996,54.605L76.134,135.94L240.999,40.947z M60.995,161.843l71.082,40.618     c-7.122,16.423-11.08,34.525-11.08,53.536c0,19.011,3.958,37.113,11.08,53.536l-71.082,40.618V161.843z M240.999,471.048     L76.134,376.054l70.869-40.496c21.794,29.777,55.474,50.326,93.996,54.605V471.048z M240.999,359.925     c-32.579-4.681-60.375-24.367-76.132-51.812c-0.006-0.01-0.01-0.021-0.015-0.03c-0.004-0.007-0.009-0.013-0.013-0.02     c-8.803-15.354-13.842-33.132-13.842-52.064c0-13.598,2.599-26.602,7.325-38.539l82.677,47.244V359.925z M255.999,238.72     l-82.751-47.286c19.234-24.598,49.176-40.439,82.751-40.439c33.574,0,63.516,15.841,82.751,40.439L255.999,238.72z M271,471.047     v-80.885c38.522-4.278,72.202-24.828,93.996-54.605l70.869,40.496L271,471.047z M451.004,350.152l-71.082-40.619     c7.122-16.423,11.08-34.525,11.08-53.536c0-19.011-3.958-37.113-11.08-53.536l71.082-40.618V350.152z" fill="#ffffff" data-original="#000000" style=""/>
		</g>
	</g>
</g>
<g xmlns="http://www.w3.org/2000/svg">
</g>
<g xmlns="http://www.w3.org/2000/svg">
</g>
<g xmlns="http://www.w3.org/2000/svg">
</g>
<g xmlns="http://www.w3.org/2000/svg">
</g>
<g xmlns="http://www.w3.org/2000/svg">
</g>
<g xmlns="http://www.w3.org/2000/svg">
</g>
<g xmlns="http://www.w3.org/2000/svg">
</g>
<g xmlns="http://www.w3.org/2000/svg">
</g>
<g xmlns="http://www.w3.org/2000/svg">
</g>
<g xmlns="http://www.w3.org/2000/svg">
</g>
<g xmlns="http://www.w3.org/2000/svg">
</g>
<g xmlns="http://www.w3.org/2000/svg">
</g>
<g xmlns="http://www.w3.org/2000/svg">
</g>
<g xmlns="http://www.w3.org/2000/svg">
</g>
<g xmlns="http://www.w3.org/2000/svg">
</g>
</g></svg>
