<?xml version="1.0"?>
<svg xmlns="http://www.w3.org/2000/svg" xmlns:xlink="http://www.w3.org/1999/xlink" xmlns:svgjs="http://svgjs.com/svgjs" version="1.1" width="512" height="512" x="0" y="0" viewBox="0 0 512 512" style="enable-background:new 0 0 512 512" xml:space="preserve" class=""><g><g xmlns="http://www.w3.org/2000/svg"><path d="m89.246 507.607c5.854 5.855 15.357 5.857 21.213 0l102.301-102.3c8.481 3.498 17.198 6.4 26.082 8.661l3.307 23.154c1.056 7.39 7.385 12.879 14.85 12.879l60.002-.01c7.465 0 13.793-5.479 14.85-12.868l3.307-23.15c18.092-4.59 35.303-11.73 51.387-21.317l18.735 14.052c5.971 4.479 14.327 3.886 19.606-1.394l42.427-42.426c5.278-5.278 5.872-13.635 1.394-19.606l-14.052-18.736c9.584-16.081 16.724-33.293 21.315-51.388l23.152-3.307c7.39-1.056 12.879-7.384 12.879-14.849l-.002-60.002c0-7.464-5.489-13.793-12.878-14.849l-23.15-3.308c-4.59-18.091-11.73-35.301-21.317-51.386l14.052-18.735c4.479-5.972 3.885-14.328-1.394-19.606l-42.427-42.426c-5.277-5.279-13.635-5.873-19.606-1.394l-18.735 14.052c-16.085-9.588-33.296-16.728-51.387-21.317l-3.307-23.15c-1.057-7.39-7.385-12.878-14.85-12.878l-60-.001c-7.464 0-13.794 5.489-14.85 12.878l-3.308 23.152c-18.095 4.592-35.307 11.732-51.388 21.316l-18.734-14.052c-5.971-4.479-14.327-3.886-19.606 1.394l-42.426 42.426c-5.278 5.278-5.872 13.634-1.394 19.606l14.051 18.735c-9.587 16.084-16.728 33.295-21.317 51.386l-23.149 3.308c-7.39 1.057-12.879 7.386-12.879 14.85v60.001c0 7.465 5.489 13.794 12.879 14.849l23.154 3.307c2.261 8.884 5.163 17.601 8.661 26.083l-102.3 102.3c-5.858 5.857-5.858 15.355 0 21.213zm35.864-250.72c-1.227-6.263-6.281-11.063-12.599-11.965l-20.511-2.929v-33.983l20.512-2.931c6.317-.902 11.371-5.703 12.599-11.966 4.216-21.522 12.59-41.712 24.892-60.007 3.561-5.296 3.381-12.264-.448-17.37l-12.455-16.606 24.027-24.028 16.606 12.455c5.105 3.829 12.073 4.009 17.369.448 18.29-12.297 38.48-20.672 60.012-24.893 6.262-1.227 11.063-6.282 11.965-12.598l2.93-20.523h33.981l2.931 20.522c.903 6.317 5.704 11.372 11.967 12.599 21.521 4.215 41.711 12.59 60.008 24.892 5.296 3.561 12.265 3.38 17.369-.448l16.606-12.455 24.029 24.029-12.455 16.606c-3.829 5.105-4.009 12.074-.448 17.37 12.302 18.295 20.677 38.485 24.892 60.007 1.228 6.263 6.281 11.063 12.599 11.966l20.523 2.931.001 33.981-20.523 2.93c-6.316.902-11.371 5.702-12.599 11.964-4.221 21.532-12.596 41.723-24.893 60.012-3.561 5.296-3.381 12.265.448 17.37l12.455 16.606-24.028 24.028-16.606-12.455c-5.104-3.829-12.073-4.009-17.369-.448-18.296 12.301-38.485 20.676-60.009 24.892-6.262 1.227-11.063 6.281-11.966 12.599l-2.93 20.512h-33.983l-2.929-20.511c-.902-6.318-5.703-11.373-11.966-12.6-6.428-1.259-12.771-2.918-19-4.938l24.965-24.965c43.859 8.63 89.267-4.412 121.379-36.526 34.662-34.661 46.636-84.231 34.555-129.949-1.371-5.19-5.411-9.252-10.595-10.65-5.181-1.398-10.719.079-14.514 3.875l-66.53 66.53-47.729-15.91-15.91-47.729 66.529-66.53c3.796-3.796 5.274-9.331 3.876-14.514s-5.46-9.223-10.65-10.595c-45.619-12.054-95.222-.175-129.949 34.554-32.115 32.115-45.157 77.52-36.526 121.379l-24.966 24.966c-2.021-6.23-3.68-12.573-4.939-19.001zm56.986 9.379c3.776-3.776 5.26-9.275 3.896-14.438-9.725-36.806.279-74.589 26.762-101.072 19.707-19.707 45.671-30.289 72.833-30.407l-51.62 51.621c-4.018 4.018-5.421 9.96-3.624 15.35l21.214 63.639c1.493 4.479 5.008 7.994 9.487 9.487l63.64 21.213c5.387 1.798 11.333.394 15.35-3.624l51.62-51.62c-.118 27.163-10.7 53.126-30.407 72.833-26.48 26.483-64.267 36.487-101.071 26.761-5.163-1.362-10.661.12-14.438 3.896l-145.885 145.883-21.213-21.213 134.113-134.114c5.858-5.858 5.858-15.355 0-21.213-5.857-5.858-15.355-5.858-21.213 0l-134.113 134.114-21.214-21.214z" fill="#ffffff" data-original="#000000" style="" class=""/></g></g></svg>
