<?xml version="1.0"?>
<svg xmlns="http://www.w3.org/2000/svg" xmlns:xlink="http://www.w3.org/1999/xlink" xmlns:svgjs="http://svgjs.com/svgjs" version="1.1" width="512" height="512" x="0" y="0" viewBox="0 0 512 512" style="enable-background:new 0 0 512 512" xml:space="preserve" class=""><g><g xmlns="http://www.w3.org/2000/svg"><path d="m497 31h-482c-8.284 0-15 6.716-15 15v330c0 8.284 6.716 15 15 15h190.188l-20 60h-49.188c-8.284 0-15 6.716-15 15s6.716 15 15 15h240c8.284 0 15-6.716 15-15s-6.716-15-15-15h-49.188l-20-60h190.188c8.284 0 15-6.716 15-15v-330c0-8.284-6.716-15-15-15zm-15 30v240h-452v-240zm-186.812 390h-78.377l20-60h38.377zm-265.188-90v-30h452v30c-22.565 0-438.858 0-452 0z" fill="#ffffff" data-original="#000000" style="" class=""/><path d="m90.77 260.744c2.042 6.125 7.774 10.256 14.23 10.256h121c6.456 0 12.188-4.131 14.23-10.256l30-90c1.524-4.575.758-9.603-2.062-13.514s-7.347-6.23-12.168-6.23h-20.73l-25.854-51.708c-3.704-7.41-12.713-10.414-20.124-6.708-7.41 3.705-10.413 12.715-6.708 20.125l19.146 38.291h-72.46l19.146-38.292c3.705-7.41.702-16.419-6.708-20.125-7.406-3.703-16.419-.702-20.124 6.708l-25.854 51.709h-20.73c-4.821 0-9.35 2.318-12.169 6.229s-3.586 8.939-2.062 13.514zm124.418-19.744h-99.377l-20-60h139.377z" fill="#ffffff" data-original="#000000" style="" class=""/><circle cx="316" cy="196" r="15" fill="#ffffff" data-original="#000000" style="" class=""/><path d="m376 211h61c8.284 0 15-6.716 15-15s-6.716-15-15-15h-61c-8.284 0-15 6.716-15 15s6.716 15 15 15z" fill="#ffffff" data-original="#000000" style="" class=""/><circle cx="316" cy="136" r="15" fill="#ffffff" data-original="#000000" style="" class=""/><path d="m376 151h61c8.284 0 15-6.716 15-15s-6.716-15-15-15h-61c-8.284 0-15 6.716-15 15s6.716 15 15 15z" fill="#ffffff" data-original="#000000" style="" class=""/><circle cx="316" cy="256" r="15" fill="#ffffff" data-original="#000000" style="" class=""/><path d="m376 271h61c8.284 0 15-6.716 15-15s-6.716-15-15-15h-61c-8.284 0-15 6.716-15 15s6.716 15 15 15z" fill="#ffffff" data-original="#000000" style="" class=""/></g></g></svg>
